# xmcd
#
# Track frame offsets: 
#        150
#        20798
#        38693
#        66929
#        83521
#        115525
#        132197
#        151426
#        174225
#        200203
#
# Disc length: 2912 seconds
#
# Revision: 0
# Processed by: cddbd v1.5.2PL0 Copyright (c) Steve Scherf et al.
# Submitted via: ExactAudioCopy v0.99pb4
#
DISCID=7d0b5e0a
DTITLE=Liquid Groove Mojo - Cradle To The Grave
DYEAR=2005
DGENRE=Blues/Rock
TTITLE0=Long Walk 
TTITLE1=High Price 
TTITLE2=Hello Goodbye 
TTITLE3=Cradle To The Grave 
TTITLE4=Storm Warning 
TTITLE5=Time Is Running Out 
TTITLE6=Sunshine 
TTITLE7=Back To Memphis 
TTITLE8=If Heartaches Were Nickels 
TTITLE9=Aces High/Deuces Low 
EXTD=
EXTT0=
EXTT1=
EXTT2=
EXTT3=
EXTT4=
EXTT5=
EXTT6=
EXTT7=
EXTT8=
EXTT9=
PLAYORDER=
